<svg width="300" height="96" xmlns="http://www.w3.org/2000/svg">
 <metadata id="metadata8">image/svg+xml</metadata>
 <defs>
  <clipPath id="clipPath18">
   <path id="path20" d="m0,0l1417,0l0,314.668l-1417,0l0,-314.668z"/>
  </clipPath>
 </defs>
 <g>
  <title>background</title>
  <rect fill="none" id="canvas_background" height="98" width="302" y="-1" x="-1"/>
 </g>
 <g>
  <title>Layer 1</title>
  <path fill="#ed1c24" fill-rule="nonzero" id="path22" d="m1,80.60073l19.79997,0l0,-6.00028l-19.79997,0l0,6.00028z"/>
  <path fill="#ed1c24" fill-rule="nonzero" id="path24" d="m1,72.80211l19.79997,0l0,-6.0011l-19.79997,0l0,6.0011z"/>
  <path fill="#ed1c24" fill-rule="nonzero" id="path26" d="m1,65.00269l19.79997,0l0,-6.0011l-19.79997,0l0,6.0011z"/>
  <path fill="#f6836c" fill-rule="nonzero" id="path28" d="m1,57.20168l19.79997,0l0,-5.99861l-19.79997,0l0,5.99861z"/>
  <path fill="#f6836c" fill-rule="nonzero" id="path30" d="m1,49.40048l19.79997,0l0,-5.99861l-19.79997,0l0,5.99861z"/>
  <path fill="#fff200" fill-rule="nonzero" id="path32" d="m23.20028,80.60073l19.8008,0l0,-6.00028l-19.8008,0l0,6.00028z"/>
  <path fill="#fff200" fill-rule="nonzero" id="path34" d="m23.20028,72.80211l19.8008,0l0,-6.0011l-19.8008,0l0,6.0011z"/>
  <path fill="#fff200" fill-rule="nonzero" id="path36" d="m23.20028,65.00269l19.8008,0l0,-6.0011l-19.8008,0l0,6.0011z"/>
  <path fill="#ec008c" fill-rule="nonzero" id="path38" d="m45.40056,80.60073l19.8008,0l0,-6.00028l-19.8008,0l0,6.00028z"/>
  <path fill="#ec008c" fill-rule="nonzero" id="path40" d="m45.40056,72.80211l19.8008,0l0,-6.0011l-19.8008,0l0,6.0011z"/>
  <path fill="#ec008c" fill-rule="nonzero" id="path42" d="m45.40056,65.00269l19.8008,0l0,-6.0011l-19.8008,0l0,6.0011z"/>
  <path fill="#f680c5" fill-rule="nonzero" id="path44" d="m45.40056,57.20168l19.8008,0l0,-5.99861l-19.8008,0l0,5.99861z"/>
  <path fill="#f680c5" fill-rule="nonzero" id="path46" d="m45.40056,49.40048l19.8008,0l0,-5.99861l-19.8008,0l0,5.99861z"/>
  <path fill="#f680c5" fill-rule="nonzero" id="path48" d="m45.40056,41.60097l19.8008,0l0,-6.00028l-19.8008,0l0,6.00028z"/>
  <path fill="#f680c5" fill-rule="nonzero" id="path50" d="m45.40056,33.80252l19.8008,0l0,-6.00111l-19.8008,0l0,6.00111z"/>
  <path fill="#b2db18" fill-rule="nonzero" id="path52" d="m67.60063,80.60073l19.79997,0l0,-6.00028l-19.79997,0l0,6.00028z"/>
  <path fill="#b2db18" fill-rule="nonzero" id="path54" d="m67.60063,72.80211l19.79997,0l0,-6.0011l-19.79997,0l0,6.0011z"/>
  <path fill="#b2db18" fill-rule="nonzero" id="path56" d="m67.60063,65.00269l19.79997,0l0,-6.0011l-19.79997,0l0,6.0011z"/>
  <path fill="#d9ed84" fill-rule="nonzero" id="path58" d="m67.60063,57.20168l19.79997,0l0,-5.99861l-19.79997,0l0,5.99861z"/>
  <path fill="#d9ed84" fill-rule="nonzero" id="path60" d="m67.60063,49.40048l19.79997,0l0,-5.99861l-19.79997,0l0,5.99861z"/>
  <path fill="#59caf5" fill-rule="nonzero" id="path62" d="m89.80091,80.60073l19.80162,0l0,-6.00028l-19.80162,0l0,6.00028z"/>
  <path fill="#59caf5" fill-rule="nonzero" id="path64" d="m89.80091,72.80211l19.80162,0l0,-6.0011l-19.80162,0l0,6.0011z"/>
  <path fill="#59caf5" fill-rule="nonzero" id="path66" d="m89.80091,65.00019l19.80162,0l0,-6.00028l-19.80162,0l0,6.00028z"/>
  <path fill="#b2e6fa" fill-rule="nonzero" id="path68" d="m89.80091,57.20168l19.80162,0l0,-6.00111l-19.80162,0l0,6.0011l0,0.00001z"/>
  <path fill="#b2e6fa" fill-rule="nonzero" id="path70" d="m89.80091,49.40048l19.80162,0l0,-6.00111l-19.80162,0l0,6.00111z"/>
  <path fill="#b2e6fa" fill-rule="nonzero" id="path72" d="m89.80091,41.59949l19.80162,0l0,-5.99861l-19.80162,0l0,5.99861z"/>
  <path fill="#b2e6fa" fill-rule="nonzero" id="path74" d="m89.80091,33.79828l19.80162,0l0,-5.9986l-19.80162,0l0,5.9986z"/>
  <path fill="#b2e6fa" fill-rule="nonzero" id="path76" d="m89.80091,25.99898l19.80162,0l0,-6.00027l-19.80162,0l0,6.00027z"/>
  <path fill="#231f20" fill-rule="nonzero" id="path78" d="m126.39709,72.8509l4.65075,0c6.82796,0 7.94598,-3.59834 7.94598,-15.03751l0,-22.87401c0,-9.87237 -0.84518,-13.19194 -8.68173,-13.19194l-3.915,0l0,51.10346zm-8.9967,-58.8509l14.8457,0c14.94391,0 16.35445,5.22966 16.35445,24.60207l0,19.79849c0,17.0656 -3.43218,22.20017 -18.00249,22.20017l-13.19766,0l0,-66.60073"/>
  <path fill="#231f20" fill-rule="nonzero" id="path80" d="m152.19719,14l25.20087,0l0,7.91677l-16.20078,0l0,20.88329l14.99936,0l0,7.80184l-14.99936,0l0,22.08777l16.20078,0l0,7.91106l-25.20087,0l0,-66.60073"/>
  <path fill="#231f20" fill-rule="nonzero" id="path82" d="m180.99895,14l25.19917,0l0,7.91677l-16.1993,0l0,20.88329l15.00021,0l0,7.80184l-15.00021,0l0,22.08777l16.1993,0l0,7.91106l-25.19917,0l0,-66.60073"/>
  <path fill="#231f20" fill-rule="nonzero" id="path84" d="m242.79577,14l25.20109,0l0,7.91677l-16.20098,0l0,20.88329l15.00296,0l0,7.80184l-15.00296,0l0,22.08777l16.20098,0l0,7.91106l-25.20108,0l0,-66.60073"/>
  <path fill="#231f20" fill-rule="nonzero" id="path86" d="m209.79709,72.79963l20.73471,-51.00108l-20.73471,0l0,-7.79845l29.39823,0l0,7.79845l-20.37717,51.00108l20.37717,0l0,7.8011l-29.39823,-0.0041l0,-7.79696"/>
  <path fill="#231f20" fill-rule="nonzero" id="path88" d="m280.59741,43.3977l2.7919,0c7.28769,0 8.39894,-0.89959 8.39894,-10.86022c0,-9.87236 -0.88477,-10.74295 -6.59765,-10.74295l-4.59319,0l0,21.60317zm-9.00007,-29.3976l14.3997,0c13.46837,0 14.41241,3.43112 14.41241,18.00567c0,8.94463 -0.84456,13.31852 -8.40952,15.62294l0,0c6.2717,0.64474 8.42012,3.91902 8.42012,10.18881l0,14.48188c0,2.40193 0.0169,5.52898 0.57995,8.29719l-9.00007,0c-0.92712,-1.66191 -0.5948,-3.29738 -0.5948,-5.97381l0,-15.03414c0,-6.27307 -1.19167,-7.7903 -7.28134,-7.7903l-3.52638,0l0,28.80239l-9.00007,-0.0041l0,-66.5965"/>
 </g>
</svg>