<svg width="570" height="182.4" xmlns="http://www.w3.org/2000/svg">
 <metadata id="metadata55">image/svg+xml</metadata>
 <defs>
  <linearGradient y2="0.041883" x2="0.323301" y1="0.835961" x1="0.638099" id="SVGID_1_">
   <stop stop-color="#FCD08F" id="stop12" offset="0"/>
   <stop stop-color="#F79673" id="stop14" offset="1"/>
  </linearGradient>
  <linearGradient y2="1.163864" x2="0.13551" y1="0.134678" x1="0.872564" id="SVGID_2_">
   <stop stop-color="#E74047" id="stop19" offset="0"/>
   <stop stop-color="#7F50A0" id="stop21" offset="1"/>
  </linearGradient>
  <linearGradient y2="-0.159806" x2="0.128242" y1="0.854869" x1="0.876749" id="SVGID_3_">
   <stop stop-color="#E6FFAB" id="stop26" offset="0"/>
   <stop stop-color="#47BEBC" id="stop28" offset="1"/>
  </linearGradient>
  <linearGradient y2="0.000004" x2="0.500011" y1="0.999998" x1="0.500011" id="SVGID_4_">
   <stop stop-color="#84E9DB" id="stop33" offset="0"/>
   <stop stop-color="#197491" id="stop35" offset="1"/>
  </linearGradient>
 </defs>
 <g>
  <title>background</title>
  <rect fill="none" id="canvas_background" height="184.4" width="572" y="-1" x="-1"/>
 </g>
 <g>
  <title>Layer 1</title>
  <rect fill="#808285" id="rect3" height="57.875" width="4.75" y="60.177957" x="471.935632"/>
  <path fill="#808285" id="path5" d="m518.685632,111.177956l0,-23.25c0,0 -0.333,-12.629 -16.5,-12.629c-16.167,0 -16.625,11.879 -16.625,11.879l5.125,-0.016c0,0 -0.25,-8.109 11.375,-8.109c11.625,0 11.5,9.375 11.5,9.375l0,5.609l-9.5,0.016c-13.563,0 -20.25,5.188 -20.25,12.5c0,7.312 4.063,12.5 14,12.5c9.937,0 15.5,-7 15.5,-7c0,2.875 1.5,6 1.5,6l5.5,0c0,0 -1.625,-3.562 -1.625,-6.875zm-5.125,-8.312c0,8.438 -10.188,12.125 -15.313,12.125c-5.125,0 -9.375,-2.438 -9.375,-8.063c0,-5.625 6.688,-9.313 14.813,-9.313l9.875,0l0,5.251z"/>
  <path fill="#808285" id="path7" d="m523.602632,76.302956l5,0l15.5,35.584l15.084,-35.584l5.666,0c0,0 -19.749,46.458 -21.583,50.833c-1.834,4.375 -6.209,8.417 -11.583,8.417c-2.418,0 -4.834,-1.417 -4.834,-1.417l1.334,-3.75c0,0 1.209,0.667 3.583,0.667c2.374,0 6.5,-5.5 6.5,-5.5l3,-7.167l-17.667,-42.083z"/>
  <path fill="#808285" id="path9" d="m446.986632,75.298956c-8.874,0 -14.819,7.28 -14.984,7.484l0,-6.48l-0.016,0l-4.734,0l0,57.75l4.734,0l0.016,0l0,-22.85c0.163,0.272 4.798,7.85 15.109,7.85c10.5,0 18.625,-6.75 18.625,-22.211c0,-15.461 -9.75,-21.543 -18.75,-21.543zm-0.75,39.879c-8.616,0 -14.069,-8.829 -14.234,-9.1l0,-18.047c0.166,-0.225 6.472,-8.729 14.859,-8.729c7.625,0 14,7.75 14,17.873c0,10.123 -5.875,18.003 -14.625,18.003z"/>
  <path fill="url(#SVGID_1_)" id="path16" d="m92.230632,110.890956c15.287,-8.367 26.962,-14.758 28.024,-15.34c3.168,-1.734 6.487,-6.159 0,-9.696c-2.085,-1.139 -13.446,-7.334 -28.042,-15.297l-20.075,20.229l20.093,20.104z"/>
  <path fill="url(#SVGID_2_)" id="path23" d="m72.136632,90.786956l-64.208,64.698c1.45,0.184 3.194,-0.2 5.2,-1.298c4.153,-2.273 48.753,-26.686 79.102,-43.298l-20.094,-20.102z"/>
  <path fill="url(#SVGID_3_)" id="path30" d="m72.136632,90.786956l20.075,-20.229c0,0 -74.616,-40.709 -79.083,-43.146c-1.717,-0.937 -3.589,-1.264 -5.246,-0.895l64.254,64.27z"/>
  <path fill="url(#SVGID_4_)" id="path37" d="m72.136632,90.786956l-64.255,-64.269c-2.654,0.592 -4.829,2.889 -4.829,7.506c0,7.5 0,107.453 0,113.75c0,4.348 1.711,7.406 4.875,7.711l64.209,-64.698z"/>
  <path fill="#808285" id="path39" d="m204.199632,64.263956c0,0 -6.938,-7.057 -24.286,-7.057c-21.121,0 -33.395,16.221 -33.395,31.582c0,13.426 9.281,30.38 32.354,30.38c11.927,0 25.327,-4.388 25.327,-4.388c0,0 0,-5.293 0,-10.415c0,-5.119 3.47,-6.885 3.47,-6.885l-18.475,0l-6.506,3.615c3.492,-0.882 12.751,-0.774 12.751,-0.774l0,12.908c0,0 -4.099,2.323 -10.321,2.323c-18,0 -29.665,-15.791 -29.665,-30.206c0,-17.598 12.577,-25.043 23.505,-25.043c10.93,0 17.088,8.09 17.088,8.09l-1.996,3.271l3.21,-0.86l6.939,-6.541z"/>
  <path fill="#808285" id="path41" d="m233.562632,75.464956c-12.38,0 -22.468,8.987 -22.468,22.103c0,9.446 7.612,20.818 21.092,20.818c13.482,0 22.93,-8.986 22.93,-21.643c0,-12.657 -9.172,-21.278 -21.554,-21.278zm0.917,40.169c-10.217,0 -15.041,-15.773 -15.041,-23.753c0,-7.979 5.412,-13.665 11.647,-13.665c8.896,0 15.041,10.497 15.041,22.745c0.001,4.218 -1.429,14.673 -11.647,14.673z"/>
  <path fill="#808285" id="path43" d="m281.738632,75.486956c-12.375,0 -22.458,8.983 -22.458,22.092c0,9.441 7.608,20.808 21.083,20.808c13.476,0 22.917,-8.981 22.917,-21.632c0,-12.651 -9.166,-21.268 -21.542,-21.268zm0.916,40.149c-10.211,0 -15.033,-15.767 -15.033,-23.742c0,-7.974 5.41,-13.657 11.642,-13.657c8.893,0 15.034,10.492 15.034,22.732c0,4.217 -1.429,14.667 -11.643,14.667z"/>
  <path fill="#808285" id="path45" d="m338.831632,115.343956c-4.419,-3.05 -5.284,-4.509 -5.284,-5.83c0,-1.32 0.047,-2.39 3.189,-5.373c3.142,-2.984 6.014,-6.104 6.014,-11.753c0,-8.382 -5.648,-12.117 -5.648,-12.117l5.374,-0.181l5.374,-3.189c0,0 -10.203,0 -20.951,0c-10.75,0 -18.858,8.291 -18.858,17.219c0,6.285 5.329,13.8 15.852,13.8c1.093,0 1.822,-0.228 1.822,-0.228c0,0 -0.637,1.391 -0.637,3.235c0,3.007 2.595,5.694 2.595,5.694c0,0 -24.278,0.022 -24.278,15.577c0,9.404 10.613,12.936 19.313,12.936c8.701,0 23.595,-4.69 23.595,-16.672c-0.002,-5.715 -3.051,-10.065 -7.472,-13.118zm-11.524,-10.157c-6.354,0 -11.41,-9.496 -11.41,-15.235c0,-5.74 2.869,-9.84 7.925,-9.84c5.058,0 11.068,5.808 11.068,16.398c0,3.69 -1.227,8.677 -7.583,8.677zm-0.477,36.075c-2.938,0 -15.441,-1.161 -15.441,-11.067c0,-9.906 14.414,-10.83 16.088,-10.83c1.676,0 3.109,0.24 3.109,0.24c4.443,3.928 9.361,5.876 9.361,12.023c0,8.816 -10.181,9.634 -13.117,9.634z"/>
  <path fill="#808285" id="path47" d="m346.777632,57.372956l5.993,-3.27l13.148,0c-3.064,1.635 -4.212,2.93 -4.291,10.559c-0.079,7.627 -0.478,46.482 -0.478,46.482c0,2.908 2.529,3.696 4.808,3.696c2.074,0 3.025,0.403 3.025,0.403l-2.791,1.941l-15.942,0c0,0 2.289,-2.046 2.317,-4.087l0.818,-55.708l-6.607,-0.016z"/>
  <path fill="#808285" id="path49" d="m404.920632,86.621956c0,0 -2.211,-11.323 -15.652,-11.323c-13.441,0 -20.44,10.588 -20.44,20.991c0,10.402 6.169,22.096 21.544,22.096c10.772,0 15.652,-8.01 15.652,-8.01c0,0 -5.156,3.039 -10.865,3.039c-8.56,0 -18.505,-9.024 -18.505,-22.28c0,-8.932 6.228,-12.522 10.129,-12.522c7.826,0 9.251,7.044 8.563,8.286c-0.691,1.243 -18.415,8.471 -18.415,8.471l7.089,-0.369l20.9,-8.379z"/>
 </g>
</svg>