<?xml version="1.0" encoding="utf-8"?>
<!-- Generator: Adobe Illustrator 21.1.0, SVG Export Plug-In . SVG Version: 6.00 Build 0)  -->
<svg version="1.1" xmlns="http://www.w3.org/2000/svg" xmlns:xlink="http://www.w3.org/1999/xlink" x="0px" y="0px"
	 viewBox="0 0 125 40" enable-background="new 0 0 125 40" xml:space="preserve">
<g id="bg" display="none">
	<rect display="inline" fill="#FFFFFF" width="125" height="40"/>
</g>
<g id="icons">
	<g>
		<g>
			<path fill="#FFFFFF" d="M9,39.75c-4.825,0-8.75-3.925-8.75-8.75V9c0-4.825,3.925-8.75,8.75-8.75h22.065
				c4.825,0,8.75,3.925,8.75,8.75v22c0,4.825-3.925,8.75-8.75,8.75H9z"/>
			<path fill="#F7F7F7" d="M31.065,0.5c4.687,0,8.5,3.813,8.5,8.5v22c0,4.687-3.813,8.5-8.5,8.5H9c-4.687,0-8.5-3.813-8.5-8.5V9
				c0-4.687,3.813-8.5,8.5-8.5H31.065 M31.065,0H9C4.029,0,0,4.029,0,9v22c0,4.971,4.029,9,9,9h22.065c4.971,0,9-4.029,9-9V9
				C40.065,4.029,36.036,0,31.065,0L31.065,0z"/>
		</g>
		<g transform="translate(91 73)">
			<path fill="#FF2A59" d="M-44.257-59.318v12.763h7.827c2.188,0,3.86-1.513,3.949-3.701c0.089-1.677-0.694-2.662-2.17-3.246
				c0.978-0.346,1.512-1.295,1.53-2.316c0.053-1.896-1.423-3.501-3.273-3.501H-44.257z M-39.401-51.66h1.21
				c0.64,0,0.889,0.401,0.889,0.802s-0.267,0.802-0.889,0.802h-1.21V-51.66z M-39.401-55.908h0.907c0.889,0,0.836,1.331,0,1.331
				h-0.907V-55.908z M-31.821-52.973c0.036,8.898,13.449,8.807,13.485,0C-18.372-61.889-31.786-61.907-31.821-52.973L-31.821-52.973
				z M-27.018-52.991c0.018-2.972,3.807-2.972,3.825,0C-23.211-50.055-27-50.037-27.018-52.991L-27.018-52.991z M-17.464-52.973
				c0.036,8.898,13.449,8.807,13.485,0C-4.015-61.889-17.429-61.907-17.464-52.973L-17.464-52.973z M-12.661-52.991
				c0.018-2.972,3.807-2.972,3.825,0C-8.854-50.055-12.643-50.037-12.661-52.991L-12.661-52.991z M1.18-52.353l1.868,2.954h1.708
				l1.868-2.954l-0.338,2.954v2.844h4.785v-12.763H6.392l-2.491,3.647l-2.491-3.647h-4.696v12.763h4.803v-2.844L1.18-52.353z"/>
			
				<linearGradient id="SVGID_1_" gradientUnits="userSpaceOnUse" x1="-230.1733" y1="-363.6443" x2="-230.5342" y2="-364.0052" gradientTransform="matrix(92.5101 0 0 -92.3594 21239.0801 -33655.6211)">
				<stop  offset="0" style="stop-color:#FF271D"/>
				<stop  offset="1" style="stop-color:#FF2E8E"/>
			</linearGradient>
			<path fill="url(#SVGID_1_)" d="M-70.967-36.333c-9.22,0-16.694-7.462-16.694-16.667s7.474-16.667,16.694-16.667
				S-54.274-62.205-54.274-53S-61.748-36.333-70.967-36.333z M-70.967-39c7.745,0,14.023-6.268,14.023-14s-6.278-14-14.023-14
				S-84.99-60.732-84.99-53S-78.712-39-70.967-39z M-76.643-59.667h8.456c1.99,0,3.596,1.766,3.538,3.761
				c-0.019,1.074-0.611,1.992-1.663,2.357c1.588,0.614,2.444,1.52,2.349,3.284c-0.096,2.301-1.87,3.932-4.224,3.932h-8.456V-59.667z
				 M-71.503-55.906v1.368h1.372c0.378,0,0.684-0.306,0.684-0.684c0-0.378-0.306-0.684-0.684-0.684H-71.503z M-71.503-51.803v1.709
				h1.544c0.472,0,0.855-0.383,0.855-0.855s-0.383-0.855-0.855-0.855H-71.503z"/>
		</g>
	</g>
</g>
</svg>
