<svg width="125" height="40" xmlns="http://www.w3.org/2000/svg">

 <g>
  <title>background</title>
  <rect fill="none" id="canvas_background" height="42" width="127" y="-1" x="-1"/>
 </g>
 <g>
  <title>Layer 1</title>
  <path stroke="null" id="svg_1" d="m19.049233,1.592789c-10.235317,0 -18.533075,8.202486 -18.533075,18.320556c0,10.118507 8.297758,18.320338 18.533075,18.320338c10.236424,0 18.533296,-8.20183 18.533296,-18.320338c0,-10.117414 -8.296872,-18.319681 -18.533518,-18.319681l0.000221,-0.000875zm8.499149,26.423501c-0.331963,0.538184 -1.044578,0.708827 -1.588998,0.378479c-4.351377,-2.627473 -9.829216,-3.222538 -16.280371,-1.765505c-0.621657,0.140015 -1.241322,-0.245027 -1.38296,-0.859781c-0.142302,-0.614754 0.245653,-1.227321 0.868859,-1.367336c7.059755,-1.594424 13.115432,-0.907911 18.000606,2.043347c0.54442,0.330348 0.717041,1.032612 0.382864,1.570796zm2.268417,-4.98848c-0.418274,0.672073 -1.307936,0.884284 -1.987354,0.470801c-4.981664,-3.026954 -12.575438,-3.903581 -18.467789,-2.135451c-0.76418,0.228181 -1.571294,-0.197553 -1.803225,-0.951666c-0.230161,-0.755426 0.200727,-1.551763 0.963579,-1.781475c6.730669,-2.018845 15.098139,-1.040926 20.818975,2.434296c0.679418,0.413483 0.894088,1.292953 0.475814,1.963714l0,-0.000219zm0.194752,-5.194565c-5.973128,-3.507163 -15.828016,-3.829636 -21.530926,-2.118606c-0.915776,0.274561 -1.884224,-0.236494 -2.161746,-1.141781c-0.277521,-0.905724 0.239014,-1.862421 1.155454,-2.137639c6.54654,-1.964589 17.429407,-1.585016 24.306362,2.450704c0.825482,0.483271 1.095479,1.534917 0.606387,2.348099c-0.48688,0.814276 -1.553589,1.082712 -2.374645,0.599221l-0.000885,0zm20.926974,0.672073c-3.200127,-0.754332 -3.768891,-1.283765 -3.768891,-2.39623c0,-1.050989 1.000316,-1.758285 2.489726,-1.758285c1.442934,0 2.87259,0.53709 4.373065,1.642773c0.044262,0.033472 0.101802,0.046818 0.157129,0.038067c0.05754,-0.008313 0.106228,-0.038723 0.139425,-0.084447l1.562441,-2.177237c0.06418,-0.089697 0.046475,-0.213304 -0.039836,-0.281781c-1.785963,-1.416123 -3.795448,-2.104604 -6.145749,-2.104604c-3.454633,0 -5.869113,2.049692 -5.869113,4.982355c0,3.144874 2.082517,4.258432 5.681001,5.117995c3.060703,0.697232 3.578566,1.281358 3.578566,2.325347c0,1.157313 -1.044578,1.877079 -2.726526,1.877079c-1.867848,0 -3.392666,-0.623505 -5.096745,-2.080539c-0.042049,-0.037192 -0.099589,-0.052506 -0.152703,-0.050318c-0.05754,0.004375 -0.108441,0.030628 -0.143851,0.072195l-1.752767,2.060849c-0.073032,0.08751 -0.06418,0.214398 0.019918,0.288781c1.982928,1.75019 4.421753,2.673416 7.055329,2.673416c3.722416,0 6.128045,-2.010531 6.128045,-5.123683c0.006639,-2.626817 -1.584572,-4.081663 -5.481823,-5.01889l-0.006639,-0.002844zm13.91148,-3.119715c-1.613342,0 -2.93677,0.628318 -4.030036,1.915802l0,-1.449158c0,-0.114419 -0.09295,-0.207616 -0.20803,-0.207616l-2.865951,0c-0.115081,0 -0.20803,0.093198 -0.20803,0.207616l0,16.101971c0,0.113762 0.09295,0.207835 0.20803,0.207835l2.865951,0c0.115081,0 0.20803,-0.094073 0.20803,-0.207835l0,-5.082116c1.093266,1.209819 2.416694,1.802696 4.030036,1.802696c2.998736,0 6.035095,-2.281811 6.035095,-6.643942c0.004426,-4.363006 -3.031933,-6.645473 -6.032882,-6.645473l-0.002213,0.000219zm2.702182,6.645254c0,2.220335 -1.383181,3.771442 -3.366109,3.771442c-1.958584,0 -3.436928,-1.621114 -3.436928,-3.771442c0,-2.150547 1.478344,-3.771223 3.436928,-3.771223c1.949732,-0.000219 3.366109,1.585454 3.366109,3.771004l0,0.000219zm11.111922,-6.645254c-3.861841,0 -6.887134,2.939445 -6.887134,6.692728c0,3.713029 3.005375,6.620533 6.84066,6.620533c3.87512,0 6.909265,-2.929381 6.909265,-6.668007c0,-3.725937 -3.014228,-6.644817 -6.86279,-6.644817l0,-0.000438zm0,10.438574c-2.053747,0 -3.60291,-1.632053 -3.60291,-3.794413c0,-2.172205 1.496048,-3.74847 3.556435,-3.74847c2.067026,0 3.625041,1.631396 3.625041,3.795944c0,2.171768 -1.504901,3.746939 -3.578566,3.746939zm15.108762,-10.179545l-3.153652,0l0,-3.186659c0,-0.1142 -0.09295,-0.207398 -0.20803,-0.207398l-2.865951,0c-0.115081,0 -0.210243,0.093198 -0.210243,0.207398l0,3.186659l-1.376542,0c-0.115081,0 -0.20803,0.093198 -0.20803,0.207616l0,2.434296c0,0.1142 0.09295,0.207616 0.20803,0.207616l1.376542,0l0,6.299592c0,2.544339 1.281379,3.835105 3.81094,3.835105c1.026874,0 1.878913,-0.210023 2.682264,-0.660697c0.066393,-0.035004 0.106228,-0.105011 0.106228,-0.179395l0,-2.319002c0,-0.070008 -0.037623,-0.137828 -0.099589,-0.175019c-0.061967,-0.039379 -0.139425,-0.041567 -0.203604,-0.008751c-0.551059,0.273467 -1.084414,0.400356 -1.681948,0.400356c-0.918432,0 -1.330067,-0.413483 -1.330067,-1.336708l0,-5.854387l3.153652,0c0.115081,0 0.20803,-0.093198 0.20803,-0.207616l0,-2.434077c0.004426,-0.114419 -0.088524,-0.207616 -0.205817,-0.207616l-0.002213,-0.001313zm10.985776,0.01247l0,-0.391386c0,-1.151407 0.447044,-1.664869 1.447361,-1.664869c0.597534,0 1.077775,0.117263 1.615555,0.29447c0.066393,0.020565 0.134998,0.010282 0.188113,-0.028878c0.055327,-0.039161 0.08631,-0.101949 0.08631,-0.168456l0,-2.386822c0,-0.091229 -0.05754,-0.171956 -0.148277,-0.198865c-0.566551,-0.166924 -1.292444,-0.338224 -2.381284,-0.338224c-2.644642,0 -4.045528,1.473223 -4.045528,4.25887l0,0.59944l-1.376542,0c-0.115081,0 -0.210243,0.093198 -0.210243,0.207398l0,2.446766c0,0.1142 0.095163,0.207616 0.210243,0.207616l1.376542,0l0,9.714651c0,0.11595 0.095163,0.207835 0.210243,0.207835l2.863738,0c0.117294,0 0.210243,-0.091885 0.210243,-0.207835l0,-9.713995l2.675625,0l4.098642,9.713995c-0.464749,1.019486 -0.922858,1.222946 -1.54695,1.222946c-0.504584,0 -1.037939,-0.148766 -1.580146,-0.444111c-0.050901,-0.026253 -0.112868,-0.030628 -0.165982,-0.015314c-0.055327,0.01969 -0.101802,0.059069 -0.123933,0.111575l-0.971546,2.106792c-0.046475,0.100636 -0.006639,0.216586 0.090737,0.269092c1.013595,0.542559 1.927601,0.774459 3.05849,0.774459c2.115714,0 3.286438,-0.975731 4.315524,-3.596641l4.970599,-12.696976c0.026557,-0.063882 0.017705,-0.136077 -0.022131,-0.19274c-0.037623,-0.056225 -0.101802,-0.090135 -0.170408,-0.090135l-2.983245,0c-0.090737,0 -0.170408,0.056225 -0.199178,0.13914l-3.056277,8.627126l-3.346191,-8.632815c-0.030983,-0.08029 -0.108441,-0.133452 -0.194752,-0.133452l-4.895354,0l0,-0.000656zm-6.369271,-0.01247l-2.865951,0c-0.115081,0 -0.210243,0.093198 -0.210243,0.207616l0,12.356564c0,0.11595 0.095163,0.207835 0.210243,0.207835l2.865951,0c0.115081,0 0.210243,-0.091885 0.210243,-0.207835l0,-12.355688c0,-0.114419 -0.09295,-0.207616 -0.210243,-0.207616l0,-0.000875zm-1.416377,-5.626644c-1.135315,0 -2.05596,0.908349 -2.05596,2.03044c0,1.122747 0.920645,2.03219 2.05596,2.03219s2.053747,-0.909443 2.053747,-2.03219c0,-1.121872 -0.920645,-2.03044 -2.053747,-2.03044zm25.100861,9.599795c-1.133102,0 -2.016125,-0.900254 -2.016125,-1.993467s0.894088,-2.003749 2.02719,-2.003749s2.016125,0.900035 2.016125,1.992373c0,1.093213 -0.894088,2.004843 -2.02719,2.004843zm0.011065,-3.799007c-1.033513,0 -1.814733,0.811651 -1.814733,1.80554c0,0.993452 0.776794,1.794164 1.803668,1.794164c1.033513,0 1.814733,-0.810995 1.814733,-1.80554c0,-0.993452 -0.776794,-1.794164 -1.803668,-1.794164zm0.447044,1.999155l0.570977,0.789336l-0.482454,0l-0.513437,-0.724141l-0.440405,0l0,0.724141l-0.402782,0l0,-2.092353l0.942776,0c0.493519,0 0.81663,0.248746 0.81663,0.667479c0.002213,0.343037 -0.199178,0.552623 -0.489093,0.635538l-0.002213,0zm-0.340816,-0.944009l-0.524502,0l0,0.661791l0.524502,0c0.261145,0 0.418274,-0.12667 0.418274,-0.331224c0,-0.215273 -0.157129,-0.330567 -0.418274,-0.330567z" fill="#1ED760"/>
 </g>
</svg>