<?xml version="1.0" encoding="utf-8"?>
<!-- Generator: Adobe Illustrator 19.1.0, SVG Export Plug-In . SVG Version: 6.00 Build 0)  -->
<svg version="1.1" id="Layer_1" xmlns="http://www.w3.org/2000/svg" xmlns:xlink="http://www.w3.org/1999/xlink" x="0px" y="0px"
	 viewBox="0 0 125 40" style="enable-background:new 0 0 125 40;" xml:space="preserve">
<style type="text/css">
	.st0{fill:#142C37;}
	.st1{fill:#C1D848;}
	.st2{fill-rule:evenodd;clip-rule:evenodd;fill:none;}
	.st3{fill-rule:evenodd;clip-rule:evenodd;}
	.st4{fill:#231F20;}
	.st5{fill:#00B6BD;}
	.st6{fill:#88257E;}
	.st7{fill:#2D3032;}
	.st8{fill:url(#SVGID_1_);}
	.st9{fill:none;}
	.st10{fill:url(#SVGID_2_);}
	.st11{fill:#272223;}
	.st12{fill:#C62F34;}
	.st13{fill:url(#SVGID_3_);}
	.st14{fill:url(#SVGID_4_);}
	.st15{fill:url(#SVGID_5_);}
	.st16{fill:url(#SVGID_6_);}
	.st17{fill:url(#SVGID_7_);}
	.st18{fill:url(#SVGID_8_);}
	.st19{fill:url(#SVGID_9_);}
	.st20{fill:url(#SVGID_10_);}
	.st21{fill:url(#SVGID_11_);}
	.st22{fill:url(#SVGID_12_);}
	.st23{fill:url(#SVGID_13_);}
	.st24{fill:url(#SVGID_14_);}
	.st25{fill:#010101;}
	.st26{fill:#050505;}
	.st27{fill:#EAECEB;}
	.st28{fill:#E7EBEA;}
	.st29{fill:#F6FAE9;}
	.st30{fill:#C1C4CE;}
	.st31{fill:#DDE7C8;}
	.st32{fill:#EAEEF6;}
	.st33{fill:#AFB1D4;}
	.st34{fill:#CFD6D2;}
	.st35{fill:#D5DCCB;}
	.st36{fill:#CCCED5;}
	.st37{fill:#DAD8E0;}
	.st38{fill:#C6C0DD;}
	.st39{fill:#B2A5E6;}
	.st40{fill:#C0B9DE;}
	.st41{fill:#B8AFE1;}
	.st42{fill:#BDACE7;}
	.st43{fill:#A7A1E1;}
	.st44{fill:#CCB4EA;}
	.st45{fill:#ACA1E6;}
	.st46{fill:#CCCAE0;}
	.st47{fill:#002319;}
	.st48{fill:url(#SVGID_15_);}
	.st49{fill:url(#SVGID_16_);}
	.st50{fill:#3CB84D;}
	.st51{fill:#72041C;}
	.st52{fill:#FFFFFF;stroke:#979797;}
	.st53{fill:url(#SVGID_17_);}
	.st54{fill:url(#Shape_3_);}
	.st55{fill:#FFFFFF;}
	.st56{fill:url(#Shape_4_);}
	.st57{fill:#EE4238;}
	.st58{fill:#B6B6B6;}
	.st59{fill:#070707;}
	.st60{fill:#0B0B0B;}
	.st61{fill:#CB2130;}
	.st62{fill:#6DBE49;}
	.st63{fill:#B693C4;}
	.st64{fill:#F16430;}
	.st65{fill:#DDC627;}
	.st66{fill:#66355C;}
	.st67{fill:#F5921F;}
	.st68{fill:#C79A49;}
	.st69{fill:#272625;}
	.st70{fill:#2D2D2C;}
	.st71{fill:#40BFCD;}
	.st72{fill:#037DC3;}
	.st73{fill:#175196;}
	.st74{fill:#F17EB2;}
	.st75{fill:#7F7F7F;}
	.st76{fill:#728A96;}
	.st77{fill:#42352E;}
	.st78{fill:#B7A669;}
	.st79{fill:#FE0101;}
	.st80{fill:#1B3E55;}
	.st81{fill:#567287;}
	.st82{fill:#4F4F51;}
	.st83{fill:#231F1F;}
	.st84{fill:#FFCC02;}
	.st85{fill:#EE0000;}
</style>
<g id="Page-1_1_">
	<g id="yandex-music_full-logo">
		<g id="Group-20">
			<path id="Fill-1" class="st83" d="M36.4,16h-1.6c-0.4,0-1,0-1.5,0.4c-0.3,0.3-0.5,0.7-0.5,1.3c0,0.6,0.3,1,0.5,1.2
				c0.5,0.4,1.4,0.4,1.8,0.4h1.3V16L36.4,16z M37.7,24.4h-1.3v-4h-0.8c-0.3,0-0.9,0-1.3,0.5c-0.2,0.2-0.4,0.4-0.6,1l-0.5,1.2
				c-0.2,0.5-0.5,0.9-0.8,1.2c-0.4,0.3-1,0.4-1.5,0.3l-0.1-1.1h0c0.3,0,0.5,0,0.8-0.3c0.1-0.1,0.3-0.3,0.5-0.8l0.4-0.9
				c0.2-0.4,0.4-0.7,0.6-1c0.2-0.2,0.5-0.4,0.9-0.5v-0.1c-0.7,0-1.4-0.2-1.8-0.7c-0.3-0.3-0.6-0.8-0.6-1.6c0-0.8,0.3-1.5,0.7-2
				c0.7-0.8,1.8-0.8,2.5-0.8h3.1V24.4L37.7,24.4z"/>
			<path id="Fill-3" class="st83" d="M41.2,24.4H40V18h1.1v2.4h3V18h1.1v6.4h-1.1v-2.9h-3V24.4z"/>
			<path id="Fill-5" class="st83" d="M51.4,19h-2v0.7c0,1-0.2,1.8-0.2,2c-0.1,0.6-0.3,1.2-0.7,1.8h2.9V19z M47.6,26.1h-1v-2.6h0.8
				c0.4-0.6,0.7-1.4,0.8-2.1c0.1-0.6,0.1-1.2,0.1-2.2V18h4.3v5.4h0.9v2.6h-1v-1.7h-4.8V26.1z"/>
			<path id="Fill-7" class="st83" d="M58.9,20.5c0-0.4-0.2-0.9-0.5-1.2c-0.3-0.3-0.7-0.4-1.1-0.4c-0.4,0-0.7,0.1-1.1,0.4
				c-0.3,0.3-0.5,0.7-0.6,1.2H58.9z M60,23.5c-0.5,0.6-1.2,1-2.5,1c-0.8,0-1.6-0.1-2.3-0.8c-0.6-0.6-0.9-1.5-0.9-2.4
				c0-0.9,0.3-1.9,0.9-2.5c0.5-0.5,1.2-0.8,2.1-0.8c0.7,0,1.4,0.2,1.9,0.7c0.8,0.8,1,2,1,2.9h-4.6c0,0.6,0.2,1.3,0.6,1.7
				c0.4,0.4,0.9,0.5,1.3,0.5c0.4,0,1.1-0.1,1.8-0.7L60,23.5z"/>
			<path id="Fill-9" class="st83" d="M63,20.5h0.3c0.3,0,0.7,0,1-0.3c0.2-0.2,0.4-0.5,0.5-0.8l0.3-0.6c0.1-0.3,0.3-0.6,0.6-0.8
				c0.3-0.2,0.7-0.2,1-0.2h0.1l0.1,1c-0.2,0-0.5,0.1-0.6,0.2c-0.2,0.1-0.2,0.3-0.3,0.5L65.8,20c-0.1,0.2-0.2,0.4-0.5,0.6
				c-0.2,0.2-0.5,0.3-0.8,0.3v0c0.4,0.1,0.7,0.2,0.8,0.4c0.2,0.2,0.3,0.5,0.4,0.7l0.3,0.6c0.1,0.3,0.2,0.5,0.4,0.7
				c0.2,0.2,0.4,0.2,0.6,0.2l-0.1,1c-0.7,0.1-1.1-0.1-1.4-0.4c-0.3-0.2-0.4-0.6-0.6-1l-0.3-0.7c-0.1-0.3-0.3-0.5-0.4-0.7
				c-0.3-0.3-0.7-0.3-1-0.3H63v2.9h-1.1V18H63V20.5z"/>
			<path id="Fill-11" class="st83" d="M73.6,23.5c-0.8,0.9-1.8,1-2.4,1c-0.8,0-1.7-0.1-2.4-0.8c-0.4-0.5-0.9-1.2-0.9-2.4
				c0-0.7,0.1-1.7,0.9-2.5c0.7-0.7,1.4-0.9,2.3-0.9c0.7,0,1.6,0.2,2.3,0.8l-0.7,0.8c-0.7-0.5-1.3-0.6-1.7-0.6
				c-0.6,0-1.1,0.3-1.3,0.5c-0.5,0.5-0.7,1.2-0.7,1.9c0,0.9,0.3,1.4,0.6,1.8c0.3,0.3,0.8,0.5,1.3,0.5c0.3,0,1-0.1,1.7-0.7L73.6,23.5
				z"/>
			<path id="Fill-13" class="st83" d="M76.1,22.7c0.5,0,1,0.4,1,1c0,0.4-0.3,1-1,1c-0.7,0-1-0.6-1-1C75.1,23.1,75.5,22.7,76.1,22.7"
				/>
			<path id="Fill-15" class="st83" d="M80.6,16.5v7.9h-1.3v-9.5h1.8l2.4,6l2.4-6h1.8v9.5h-1.3v-7.9l-2.4,6.2h-0.8L80.6,16.5z"/>
			<path id="Fill-17" class="st83" d="M93.5,18h1.2l-2.3,6.7c-0.5,1.4-0.8,1.8-1,2c-0.5,0.5-1.2,0.5-1.5,0.5c-0.2,0-0.5,0-0.7-0.1
				l-0.1-1c0.1,0,0.3,0.1,0.6,0.1c0.5,0,0.8-0.2,0.9-0.4c0.2-0.2,0.4-0.5,0.6-1.2l0.2-0.5L88.8,18h1.3l1.9,4.5L93.5,18z"/>
			<path id="Fill-19" class="st83" d="M96,22.8c0.2,0.2,0.6,0.4,0.8,0.5c0.3,0.1,0.7,0.2,1.1,0.2c0.6,0,0.9-0.2,1-0.3
				c0.2-0.1,0.4-0.3,0.4-0.7c0-0.2-0.1-0.5-0.3-0.6c-0.4-0.3-1-0.3-1.5-0.3h-0.3v-0.9h0.3c0.5,0,1.1-0.1,1.4-0.4
				c0.1-0.1,0.2-0.3,0.2-0.6c0-0.4-0.2-0.6-0.4-0.7c-0.2-0.1-0.6-0.2-0.9-0.2c-0.3,0-0.7,0.1-1,0.2c-0.3,0.1-0.6,0.3-0.8,0.4
				l-0.6-0.8c0.3-0.3,0.6-0.4,1-0.6c0.5-0.2,0.8-0.2,1.4-0.2c0.6,0,1.4,0.1,2,0.6c0.4,0.3,0.5,0.8,0.5,1.2c0,0.3-0.1,0.7-0.3,1
				c-0.2,0.2-0.5,0.4-0.8,0.4v0.1c0.3,0.1,0.7,0.2,1,0.5c0.3,0.3,0.4,0.7,0.4,1c0,0.6-0.2,1-0.5,1.3c-0.6,0.6-1.4,0.6-2,0.6
				c-0.5,0-1.2-0.1-1.7-0.3c-0.4-0.1-0.7-0.4-1.1-0.7L96,22.8z"/>
			<path id="Fill-21" class="st83" d="M108,24.4h1.1V18H108V24.4z M104.4,23.4c0.3,0,0.8,0,1.1-0.3c0.2-0.1,0.4-0.4,0.4-0.9
				c0-0.4-0.2-0.7-0.4-0.8c-0.3-0.2-0.8-0.3-1.2-0.3h-1v2.2H104.4z M102.2,18h1.1v2.2h1.1c0.8,0,1.6,0.2,2.1,0.7
				c0.2,0.3,0.5,0.7,0.5,1.4c0,0.8-0.3,1.2-0.6,1.5c-0.5,0.5-1.4,0.6-2.2,0.6h-2.1V18z"/>
			<path id="Fill-23" class="st83" d="M112.4,20.5h0.3c0.3,0,0.7,0,1-0.3c0.2-0.2,0.4-0.5,0.5-0.8l0.3-0.6c0.1-0.3,0.3-0.6,0.6-0.8
				c0.3-0.2,0.7-0.2,1-0.2h0.1l0.1,1c-0.2,0-0.5,0.1-0.6,0.2c-0.2,0.1-0.2,0.3-0.3,0.5l-0.2,0.5c-0.1,0.2-0.2,0.4-0.5,0.6
				c-0.2,0.2-0.5,0.3-0.8,0.3v0c0.4,0.1,0.7,0.2,0.8,0.4c0.2,0.2,0.3,0.5,0.4,0.7l0.3,0.6c0.1,0.3,0.2,0.5,0.4,0.7
				c0.2,0.2,0.4,0.2,0.6,0.2l-0.1,1c-0.7,0.1-1.1-0.1-1.4-0.4c-0.3-0.2-0.4-0.6-0.6-1l-0.3-0.7c-0.1-0.3-0.3-0.5-0.4-0.7
				c-0.3-0.3-0.7-0.3-1-0.3h-0.3v2.9h-1.1V18h1.1V20.5z"/>
			<path id="Fill-24" class="st83" d="M121.6,21.3c-0.1,0-1.1,0-1.7,0.1c-0.4,0.1-0.8,0.2-1,0.4c-0.1,0.1-0.3,0.4-0.3,0.7
				c0,0.4,0.2,0.6,0.3,0.7c0.2,0.2,0.6,0.3,0.8,0.3c0.2,0,0.5,0,0.8-0.2c0.4-0.2,0.8-0.5,1.1-0.8V21.3z M117.9,18.6
				c0.8-0.6,1.7-0.8,2.5-0.8c1,0,1.6,0.3,1.9,0.6c0.5,0.5,0.5,1.3,0.5,1.8v2.2c0,0.3,0,0.8,0.1,0.9c0.1,0.1,0.3,0.2,0.5,0.1l-0.2,1
				c-0.4,0.1-0.9,0-1.1-0.2c-0.2-0.2-0.4-0.4-0.4-0.7c-0.2,0.2-0.5,0.5-0.8,0.6c-0.3,0.2-0.7,0.3-1.4,0.3c-0.5,0-1.1-0.1-1.6-0.5
				c-0.3-0.3-0.6-0.7-0.6-1.4c0-0.6,0.3-1.1,0.6-1.4c0.5-0.5,1.3-0.7,1.8-0.8c0.6-0.1,1.3-0.1,1.8-0.1v-0.1c0-0.4,0-0.9-0.3-1.1
				c-0.2-0.2-0.7-0.3-1-0.3c-0.4,0-0.7,0.1-1,0.2c-0.3,0.1-0.6,0.2-0.9,0.4L117.9,18.6z"/>
			<g id="yandex-music-logo-rgb_1_">
				<g id="Promo">
					<g>
						<g id="yandex-music-logo-rgb">
							<g id="Imported-Layers-2">
								<path id="Fill-1_1_" class="st84" d="M21.5,23.1c0,6-4.8,10.9-10.9,10.9C4.8,34,0,29.1,0,23.1s4.8-10.9,10.6-10.9
									C16.7,12.2,21.5,17.1,21.5,23.1"/>
								<path id="Fill-2" class="st85" d="M16.4,23.1c0,3-2.4,5.5-5.5,5.5s-5.5-2.4-5.5-5.5s2.4-5.5,5.5-5.5S16.4,20.1,16.4,23.1"/>
								<path id="Fill-3_1_" class="st85" d="M13.6,6.7h2.7v16h-2.7V6.7L13.6,6.7z"/>
								<path id="Fill-4" class="st85" d="M13.6,4l8.2,2.7v5.5l-8.2-2.7V4"/>
							</g>
						</g>
					</g>
				</g>
			</g>
		</g>
	</g>
</g>
</svg>
