<?xml version="1.0" encoding="utf-8"?>
<!-- Generator: Adobe Illustrator 21.1.0, SVG Export Plug-In . SVG Version: 6.00 Build 0)  -->
<svg version="1.1" xmlns="http://www.w3.org/2000/svg" xmlns:xlink="http://www.w3.org/1999/xlink" x="0px" y="0px"
	 viewBox="0 0 125 40" enable-background="new 0 0 125 40" xml:space="preserve">
<g id="bg" display="none">
	<rect display="inline" fill="#FFFFFF" width="125" height="40"/>
</g>
<g id="icons">
	<g id="gCKlKr.tif">
		<g>
			<path fill="#4C85C5" d="M45.376,27.426c-0.002-0.46-0.003-0.921-0.005-1.381c0.05-0.309,0.142-0.618,0.145-0.928
				c0.014-1.692,0.007-3.385,0.007-5.078c0-2.148-0.009-4.297,0.01-6.445c0.003-0.304,0.044-0.693,0.229-0.891
				c0.372-0.396,2.005-0.072,2.368,0.366c0.21,0.254,0.498,0.443,0.751,0.662c0.214-0.145,0.437-0.279,0.641-0.437
				c2.337-1.824,5.641-1.319,7.343,0.548c0.064,0.071,0.142,0.129,0.111,0.102c1.175-0.566,2.243-1.311,3.422-1.597
				c2.042-0.495,3.995-0.175,5.456,1.581c-0.026,0.412,0.036,0.763,0.555,0.794c0.043,0.033,0.06,0.077,0.052,0.131
				c0.086,0.724,0.158,1.453,0.701,2.018c0.008,0.133,0.016,0.267,0.024,0.4c-0.245,0.461-0.299,0.917,0.037,1.362
				c0.031,2.54,0.063,5.081,0.094,7.621c-0.643,0.344-0.035,1.047-0.432,1.476c-1.037,0-2.085,0-3.185,0c0-0.443,0-0.799,0-1.155
				c0-2.573,0.018-5.146-0.009-7.718c-0.01-0.948-0.323-1.809-1.029-2.493c-1.06-1.026-3.527-0.92-4.167,0.626
				c-0.265,0.642-0.429,1.371-0.443,2.064c-0.051,2.539-0.02,5.08-0.02,7.62c0,0.347,0,0.694,0,1.059c-1.172,0-2.22,0-3.323,0
				c0-0.439,0-0.795,0-1.15c0-2.54,0.031-5.081-0.022-7.62c-0.013-0.622-0.274-1.245-0.473-1.851
				c-0.04-0.122-0.314-0.168-0.48-0.249c-0.309-0.226-0.594-0.5-0.931-0.67c-1.162-0.589-2.1-0.131-2.939,0.697
				c-0.857,0.312-0.806,1.079-0.812,1.755c-0.025,3.033-0.011,6.066-0.011,9.112C47.703,27.903,46.525,27.829,45.376,27.426z"/>
			<path fill="#4E85C3" d="M70.67,12.303c1.495,0,2.751,0,4.119,0c0,0.401,0,0.749,0,1.098c0.003,2.604,0.053,5.209-0.009,7.811
				c-0.034,1.417,1.072,2.652,2.083,2.992c1.283,0.432,2.614,0.105,3.549-0.944c0.577-0.647,0.736-1.428,0.737-2.263
				c0.003-2.539,0.01-5.077,0.015-7.616c0.001-0.324,0-0.647,0-1.048c1.331,0,2.609,0,3.956,0c0,5.219,0,10.439,0,15.761
				c-0.845,0-1.684,0.021-2.521-0.017c-0.178-0.008-0.395-0.2-0.507-0.366c-0.196-0.292-0.325-0.63-0.532-1.051
				c-0.405,0.228-0.764,0.424-1.118,0.63c-2.626,1.532-5.989,1.115-7.988-0.989c-0.834-0.878-1.422-1.94-1.478-3.115
				C70.804,19.586,70.763,15.98,70.67,12.303z"/>
			<path fill="#4E85C3" d="M125,17.977c-1.228,0.318-2.396,0.283-3.548,0.068c-0.285-0.053-0.553-0.379-0.759-0.635
				c-1.35-1.68-3.572-1.968-5.302-0.69c-2.088,1.543-2.148,5.814,0.466,7.206c1.628,0.867,3.583,0.563,4.745-0.927
				c0.505-0.648,1.044-0.889,1.818-0.835c0.583,0.041,1.172-0.007,1.757,0.015c0.272,0.01,0.54,0.095,0.811,0.146
				c-0.602,3.108-3.648,5.58-6.647,5.73c-2.548,0.127-4.673-0.568-6.372-2.483c-2.078-2.343-2.563-5.091-1.638-7.98
				c0.944-2.95,3.113-4.776,6.164-5.355C120.211,11.534,124.126,14.204,125,17.977z"/>
			<path fill="#4E85C3" d="M100.073,16.903c-1.152,0-2.19,0.031-3.224-0.021c-0.265-0.013-0.593-0.233-0.76-0.456
				c-0.647-0.867-1.513-1.075-2.509-0.924c-0.722,0.109-1.25,0.643-1.276,1.282c-0.028,0.672,0.438,0.994,0.985,1.178
				c1.138,0.382,2.3,0.694,3.434,1.088c1.016,0.353,2.007,0.788,2.697,1.672c1.603,2.052,0.979,4.971-1.348,6.523
				c-2.063,1.377-5.897,1.158-7.809-0.125c-1.397-0.938-2.005-2.311-2.285-4.086c1.167,0,2.264-0.035,3.356,0.028
				c0.228,0.013,0.497,0.349,0.642,0.598c0.74,1.266,2.449,1.696,3.617,0.803c0.344-0.264,0.616-0.763,0.697-1.196
				c0.106-0.573-0.426-0.85-0.888-1.01c-0.95-0.33-1.927-0.58-2.879-0.903c-0.704-0.239-1.425-0.471-2.072-0.826
				c-2.107-1.157-2.791-3.769-1.507-5.797c1.462-2.308,3.729-2.828,6.227-2.504c2.369,0.308,4.111,1.529,4.811,3.943
				C100.033,16.35,100.03,16.547,100.073,16.903z"/>
			<path fill="#4C85C5" d="M103.24,27.816c-0.014-2.038-0.039-4.077-0.038-6.115c0.001-3.042,0.022-6.084,0.034-9.126
				c0.844-0.001,1.687-0.004,2.531-0.001c1.115,0.004,1.126,0.012,1.126,1.159c0.002,4.316,0.002,8.631-0.001,12.947
				c0,0.284-0.03,0.567-0.046,0.837C105.637,28.057,104.421,27.724,103.24,27.816z"/>
			<path fill="#4E85C3" d="M53.733,16.863c0.166,0.081,0.44,0.127,0.48,0.249c0.199,0.606,0.46,1.229,0.473,1.851
				c0.052,2.539,0.022,5.08,0.022,7.62c0,0.355,0,0.711,0,1.15c1.103,0,2.151,0,3.323,0c0-0.365,0-0.712,0-1.059
				c0-2.54-0.031-5.081,0.02-7.62c0.014-0.693,0.177-1.422,0.443-2.064c0.639-1.546,3.107-1.652,4.167-0.626
				c0.706,0.684,1.02,1.545,1.029,2.493c0.027,2.572,0.009,5.145,0.009,7.718c0,0.356,0,0.712,0,1.155c1.1,0,2.148,0,3.185,0
				c0.397-0.428-0.21-1.132,0.432-1.476c0,0.579,0,1.157,0,1.788c-1.273,0-2.529,0-3.869,0c-0.026-0.295-0.071-0.575-0.072-0.855
				c-0.01-2.638,0.006-5.277-0.031-7.914c-0.009-0.606-0.111-1.24-0.317-1.808c-0.353-0.97-1.215-1.491-2.202-1.474
				c-1.069,0.019-1.801,0.583-2.176,1.526c-0.21,0.527-0.272,1.139-0.285,1.715c-0.063,2.702-0.085,5.404-0.124,8.107
				c-0.003,0.19-0.024,0.379-0.041,0.626c-1.265,0-2.484,0-3.783,0c-0.019-0.335-0.051-0.652-0.052-0.969
				c-0.01-2.475-0.033-4.951-0.011-7.426C54.361,18.608,54.184,17.71,53.733,16.863z"/>
			<path fill="#4E85C3" d="M105.257,10.25c-1.265,0.006-2.311-0.972-2.226-2.201c0.097-1.415,1.126-2.188,2.183-2.166
				c1.291,0.027,2.254,0.915,2.26,2.165C107.481,9.308,106.538,10.244,105.257,10.25z"/>
			<path fill="#4E85C3" d="M103.24,27.816c1.181-0.092,2.396,0.241,3.606-0.3c0.015-0.269,0.045-0.553,0.046-0.837
				c0.003-4.316,0.003-8.631,0.001-12.947c0-1.147-0.011-1.155-1.126-1.159c-0.844-0.003-1.687,0-2.531,0.001
				c0.116-0.082,0.23-0.233,0.347-0.234c1.133-0.018,2.267-0.011,3.476-0.011c0,5.217,0,10.37,0,15.686
				C105.786,27.904,104.509,28.283,103.24,27.816z"/>
			<path fill="#4E85C3" d="M48.881,13.732c-0.253-0.218-0.541-0.408-0.751-0.662c-0.363-0.439-1.996-0.763-2.368-0.366
				c-0.185,0.198-0.227,0.587-0.229,0.891c-0.018,2.148-0.01,4.296-0.01,6.445c0,1.693,0.008,3.385-0.007,5.078
				c-0.003,0.31-0.094,0.619-0.145,0.928c-0.017-3.693-0.034-7.386-0.05-11.079c-0.004-0.84-0.001-1.681-0.001-2.592
				c0.938,0,1.858-0.133,2.702,0.062C48.389,12.52,48.599,13.279,48.881,13.732z"/>
			<path fill="#4E85C3" d="M45.376,27.426c1.149,0.403,2.327,0.476,3.664,0.33c0-3.046-0.014-6.079,0.011-9.112
				c0.006-0.676-0.045-1.443,0.812-1.755c-0.466,0.88-0.623,1.815-0.613,2.81c0.027,2.723,0.009,5.446,0.009,8.247
				c-1.305,0-2.551,0-3.884,0C45.376,27.781,45.376,27.603,45.376,27.426z"/>
			<path fill="#4E85C3" d="M67.161,16.872c-0.542-0.565-0.614-1.294-0.701-2.018C66.694,15.527,66.927,16.2,67.161,16.872z"/>
			<path fill="#4E85C3" d="M67.222,18.634c-0.336-0.445-0.282-0.901-0.037-1.362C67.197,17.726,67.21,18.18,67.222,18.634z"/>
			<path fill="#4E85C3" d="M66.408,14.723c-0.519-0.032-0.581-0.382-0.555-0.794C66.039,14.194,66.223,14.458,66.408,14.723z"/>
			<g>
				<path fill="#FFFFFF" d="M27.534,25.49c-0.073-0.13-0.147-0.259-0.22-0.389c-0.114-0.139-0.228-0.278-0.342-0.416
					c-0.077-0.108-0.155-0.216-0.233-0.324c-0.063-0.083-0.127-0.166-0.19-0.249l0.003,0.005c-0.08-0.12-0.161-0.24-0.241-0.36
					l0.01,0.003c-0.065-0.068-0.13-0.136-0.196-0.204l0.009,0.006c-0.066-0.07-0.133-0.139-0.199-0.209l-0.001,0.012
					c-0.393-0.399-0.786-0.798-1.179-1.197c-0.055-0.057-0.109-0.114-0.164-0.17c-0.132-0.139-0.263-0.279-0.395-0.418l0.004,0.003
					c-0.549-0.684-0.546-0.714,0.199-1.593c-0.001,0-0.001,0-0.002,0c0.131-0.196,0.262-0.392,0.393-0.589
					c-0.001,0-0.002,0.001-0.003,0.001c0.318-0.464,0.637-0.928,0.955-1.393c0,0-0.008,0.009-0.008,0.009
					c0.074-0.128,0.149-0.257,0.223-0.385l-0.007,0.002c0.265-0.455,0.53-0.91,0.795-1.366l-0.006,0.009
					c0.068-0.132,0.136-0.265,0.204-0.397c-0.002,0.002-0.003,0.004-0.005,0.007l0.005-0.007c0,0,0,0,0,0.001
					c0.056-0.075,0.112-0.15,0.167-0.224l-0.019-0.009c-0.009-0.561,0.517-1.11,0.042-1.68c-0.861-0.016-1.725-0.002-2.583-0.057
					c-0.801-0.051-1.372,0.192-1.642,0.991c-0.038,0.113-0.148,0.202-0.225,0.302c0.024,0.042,0.016,0.076-0.024,0.104
					c-0.055,0.078-0.111,0.157-0.166,0.235l0.017-0.007c-0.068,0.132-0.137,0.263-0.205,0.395l0.009-0.005
					c-0.07,0.131-0.14,0.263-0.209,0.394l0.009-0.009c-0.082,0.183-0.164,0.366-0.246,0.548c-0.458,0.728-0.863,1.496-1.39,2.169
					c-0.359,0.459-0.888,0.784-1.341,1.169c-0.589,0.239-0.546-0.256-0.563-0.545c-0.034-0.598,0.009-1.201,0.02-1.802
					c0-0.13,0-0.261,0-0.391c0-0.782,0.001-1.563,0.001-2.345c-0.001-0.199-0.003-0.398-0.004-0.597
					c-0.173-0.379-0.426-0.608-0.885-0.598c-1.344,0.029-2.689,0.033-4.033,0.046c-0.089,0.122-0.177,0.244-0.266,0.367
					c0.027,0.191,0.054,0.382,0.082,0.573L13.482,14.9c0.705,0.543,0.906,1.311,0.92,2.142c0.018,1.101,0.027,2.203-0.01,3.302
					c-0.011,0.322-0.194,0.638-0.298,0.957c-0.308-0.14-0.634-0.251-0.916-0.432c-0.147-0.094-0.216-0.31-0.32-0.471
					c-0.056-0.07-0.113-0.14-0.169-0.21c-0.149-0.247-0.298-0.493-0.447-0.74l-0.002,0.011c-0.182-0.274-0.364-0.549-0.546-0.824
					c0.001,0,0.001,0.001,0.002,0.001c-0.068-0.13-0.137-0.259-0.205-0.389l0.008,0.01c-0.069-0.133-0.137-0.266-0.206-0.398
					L11.3,17.87c-0.068-0.133-0.136-0.266-0.205-0.4l0.009,0.01c-0.069-0.14-0.137-0.28-0.206-0.42l-0.002-0.082
					c-0.202-0.482-0.404-0.965-0.606-1.447l0.011,0.007c-0.182-0.402-0.365-0.804-0.547-1.207l0,0
					c-0.317-0.136-0.63-0.379-0.95-0.388c-1.036-0.029-2.074,0.027-3.111,0.051c-0.287,1.013,0.233,1.912,0.415,2.859
					c0.05,0.133,0.101,0.266,0.151,0.4c0.397,0.843,0.793,1.686,1.19,2.529l-0.016-0.01c0.057,0.076,0.114,0.152,0.171,0.228
					c0.073,0.129,0.146,0.258,0.22,0.387c0.049,0.037,0.063,0.084,0.042,0.141l-0.02,0.01c0.116,0.146,0.231,0.292,0.347,0.438
					c0,0,0,0,0,0l0,0.001c0,0,0,0,0,0c0.073,0.127,0.147,0.254,0.221,0.38l-0.008-0.01c0.144,0.254,0.288,0.507,0.433,0.761
					c0.001-0.004,0.001-0.008,0.003-0.013c0.119,0.142,0.238,0.284,0.357,0.426c-0.002,0-0.004,0-0.007,0
					c0.074,0.126,0.148,0.252,0.222,0.377l-0.016-0.005c0.075,0.071,0.149,0.142,0.224,0.214c0.18,0.186,0.346,0.388,0.542,0.554
					c0.962,0.817,1.862,1.734,2.917,2.408c1.334,0.852,2.86,1.235,4.472,1.007c0.877-0.124,0.98-0.26,0.996-1.126
					c0.013-0.684-0.02-1.37,0.025-2.051c0.043-0.649,0.39-0.868,0.991-0.63c0.357,0.141,0.721,0.334,0.997,0.593
					c0.877,0.821,1.685,1.718,2.582,2.516c0.39,0.347,0.908,0.661,1.41,0.749c0.727,0.126,1.494,0.063,2.241,0.026
					c0.904-0.045,1.115-0.393,0.854-1.291C27.613,25.736,27.573,25.613,27.534,25.49z"/>
				<path fill="#4C85C5" d="M33.169,28.199c-0.026-0.122-0.063-0.243-0.094-0.365c-0.031-0.122-0.055-0.243-0.055-0.365
					c-0.009-4.979-0.009-9.957,0-14.936c0-0.243,0.097-0.487,0.149-0.73c0.007-1.574-0.327-3.082-0.965-4.511
					c-0.59-1.322-1.581-2.289-2.899-2.877C27.75,3.72,26.094,3.468,24.4,3.436c-0.343,0.049-0.686,0.139-1.029,0.139
					c-4.59,0.009-9.182-0.056-13.77,0.041C8.076,3.65,6.558,4.078,5.043,4.359c-0.305,0.057-0.572,0.292-0.873,0.4
					C3.756,4.907,3.326,5.011,2.903,5.133C2.834,5.196,2.765,5.259,2.695,5.321C2.698,5.32,2.7,5.318,2.702,5.316
					C2.7,5.318,2.698,5.32,2.695,5.321C2.695,5.322,2.694,5.322,2.693,5.323c0.001-0.001,0.001-0.001,0.002-0.002
					C2.614,5.385,2.533,5.449,2.452,5.513c-1.615,1.409-2.09,3.343-2.239,5.327C0.03,13.301-0.003,15.777,0,18.247
					c0.005,3.348,0.096,6.696,0.176,10.043c0.018,0.742,0.071,1.498,0.229,2.22c0.329,1.498,0.783,2.955,2.056,3.975
					c0.081,0.066,0.162,0.131,0.243,0.197l-0.009-0.006c0.07,0.063,0.14,0.126,0.211,0.189c0.371,0.084,0.809,0.071,1.102,0.271
					c1.148,0.781,2.458,1.035,3.77,1.065c5.197,0.119,10.395,0.15,15.593,0.223c0.343,0.005,0.686,0.092,1.028,0.14
					c0.674-0.054,1.357-0.058,2.022-0.17c2.079-0.352,4.05-0.945,5.294-2.847C32.774,31.925,33.124,30.101,33.169,28.199
					C33.169,28.199,33.169,28.199,33.169,28.199C33.169,28.199,33.169,28.199,33.169,28.199z M26.795,27.151
					c-0.747,0.037-1.514,0.1-2.241-0.026c-0.502-0.087-1.019-0.401-1.41-0.749c-0.897-0.798-1.705-1.695-2.582-2.516
					c-0.277-0.259-0.641-0.452-0.997-0.593c-0.601-0.238-0.948-0.019-0.991,0.63c-0.045,0.681-0.012,1.367-0.025,2.051
					c-0.016,0.866-0.119,1.002-0.996,1.126c-1.613,0.229-3.138-0.154-4.472-1.007c-1.055-0.674-1.955-1.591-2.917-2.408
					c-0.196-0.167-0.362-0.369-0.542-0.554c-0.075-0.071-0.149-0.142-0.224-0.214l0.016,0.005c-0.074-0.126-0.148-0.252-0.222-0.377
					c-0.305,0.019-0.443-0.102-0.353-0.414C8.694,21.853,8.55,21.6,8.405,21.346l0.008,0.01c-0.073-0.127-0.147-0.254-0.221-0.38
					c-0.116-0.146-0.231-0.292-0.347-0.438l0.02-0.01c-0.057-0.009-0.113-0.018-0.17-0.026c0.043-0.038,0.085-0.077,0.128-0.115
					c-0.073-0.129-0.146-0.258-0.22-0.387c-0.057-0.076-0.114-0.152-0.171-0.228l0.016,0.01c-0.34-0.552-0.741-1.079-0.991-1.669
					c-0.102-0.241-0.687-0.463-0.199-0.86c-0.05-0.133-0.1-0.266-0.151-0.4c-0.901-0.717-1.095-2.064-0.418-2.871
					c0.067-0.422,0.386-0.434,0.716-0.433c0.801,0.001,1.602-0.012,2.402,0.005c0.502,0.011,0.989,0.082,0.945,0.777l0,0
					c0.623,0.203,0.531,0.729,0.547,1.207l-0.011-0.007c0.46,0.374,0.678,0.85,0.606,1.447l0.002,0.082
					c0.069,0.14,0.137,0.28,0.206,0.42l-0.009-0.01c0.068,0.133,0.136,0.266,0.205,0.4l-0.007-0.009
					c0.069,0.133,0.137,0.266,0.206,0.398l-0.008-0.01c0.068,0.13,0.137,0.259,0.205,0.389c0.321,0.181,0.654,0.355,0.544,0.822
					l0.002-0.011c0.149,0.247,0.298,0.493,0.447,0.74c0.056,0.07,0.113,0.14,0.169,0.21c0.373,0.159,0.745,0.319,1.196,0.512
					c0-1.501,0.009-2.924-0.011-4.346c-0.003-0.205-0.156-0.405-0.226-0.612c-0.118-0.349-0.224-0.702-0.335-1.053l0.007,0.005
					c-0.132-0.097-0.263-0.194-0.395-0.291c0.105-0.094,0.209-0.188,0.313-0.283c0.089-0.122,0.177-0.244,0.266-0.367
					c0.135-0.138,0.268-0.391,0.406-0.395c1.254-0.029,2.51-0.05,3.763,0.001c0.654,0.027,0.851,0.349,0.749,0.945
					c0.001,0.199,0.003,0.398,0.004,0.597c0.112,0.091,0.317,0.177,0.322,0.273c0.03,0.599,0.03,1.201,0,1.8
					c-0.005,0.096-0.21,0.182-0.323,0.272c0,0.13,0,0.261,0,0.391c0.114,0.122,0.35,0.299,0.323,0.357
					c-0.328,0.716,0.004,1.345,0.219,1.99c0.453-0.385,0.982-0.711,1.341-1.169c0.527-0.673,0.933-1.442,1.39-2.169
					c0.082-0.183,0.164-0.366,0.246-0.548l-0.009,0.009c0.07-0.131,0.14-0.263,0.209-0.394l-0.009,0.005
					c0.068-0.132,0.137-0.263,0.205-0.395l-0.017,0.007c0.055-0.078,0.111-0.157,0.166-0.235c0.04-0.027,0.048-0.062,0.024-0.104
					c0.03-1.378,0.68-1.646,1.636-1.653c0.682-0.005,1.366-0.04,2.043,0.018c0.265,0.023,0.513,0.255,0.768,0.395
					c-0.001-0.002-0.002-0.003-0.004-0.005c0.493,0.015,0.773,0.283,0.504,0.716c-0.198,0.318,0.271,1.02-0.539,0.974l0.019,0.009
					c-0.056,0.075-0.112,0.15-0.167,0.224c-0.068,0.132-0.136,0.265-0.204,0.397l0.006-0.009c-0.064,0.572-0.167,1.122-0.795,1.366
					l0.007-0.002c-0.074,0.128-0.149,0.257-0.223,0.385c0,0,0.008-0.009,0.008-0.009c0.011,0.688-0.247,1.192-0.95,1.391
					c0.013,0.292,0.058,0.605-0.391,0.589c-0.067,0.531-0.134,1.062-0.201,1.593l-0.004-0.003c0.132,0.139,0.263,0.279,0.395,0.418
					c0.055,0.057,0.109,0.114,0.164,0.17c0.874,0.091,1.126,0.346,1.179,1.197l0.001-0.012c0.066,0.07,0.133,0.139,0.199,0.209
					l-0.009-0.006c0.065,0.068,0.13,0.136,0.196,0.204l-0.01-0.003c0.08,0.12,0.161,0.24,0.241,0.36l-0.003-0.005
					c0.063,0.083,0.127,0.166,0.19,0.249c0.078,0.108,0.155,0.216,0.233,0.324c0.114,0.139,0.228,0.278,0.342,0.416
					c-0.001-0.002-0.002-0.003-0.003-0.005c0.001,0.002,0.002,0.003,0.003,0.005c0.002,0.003,0.005,0.006,0.007,0.009
					c-0.002-0.003-0.005-0.006-0.007-0.009c0.073,0.13,0.147,0.259,0.22,0.389c0.038,0.123,0.079,0.246,0.115,0.369
					C27.91,26.758,27.699,27.105,26.795,27.151z"/>
				<polygon fill="#4C85C5" points="26.939,15.888 26.944,15.881 26.944,15.881 				"/>
				<polygon fill="#4C85C5" points="8.193,20.975 8.193,20.975 8.193,20.976 				"/>
				<path fill="#4E85C3" d="M5.043,4.359c1.515-0.281,3.034-0.71,4.558-0.742c4.588-0.097,9.18-0.032,13.77-0.041
					c0.343-0.001,0.686-0.091,1.029-0.139c-0.323-0.018-0.646-0.05-0.969-0.051c-3.31-0.006-6.62-0.033-9.929-0.001
					c-2.137,0.021-4.277,0.07-6.408,0.219c-1.518,0.106-2.989,0.489-4.192,1.53c0,0,0.001,0,0.001,0
					c0.001-0.001,0.001-0.001,0.002-0.002C2.904,5.132,2.904,5.133,2.903,5.133C3.326,5.011,3.756,4.907,4.17,4.759
					C4.471,4.652,4.738,4.416,5.043,4.359z"/>
				<path fill="#4E85C3" d="M7.777,36.2c-1.312-0.03-2.622-0.284-3.77-1.065c-0.293-0.199-0.73-0.186-1.102-0.271
					c0,0,0.001,0,0.001,0.001c0,0-0.001,0-0.001-0.001c0,0-0.001,0-0.001,0c0.766,0.39,1.493,0.952,2.305,1.132
					c1.473,0.327,2.994,0.569,4.498,0.594c4.54,0.074,9.083,0.028,13.624,0.025c0.355,0,0.711-0.033,1.066-0.05
					c-0.343-0.049-0.685-0.135-1.028-0.14C18.173,36.35,12.974,36.319,7.777,36.2z"/>
				<path fill="#4E85C3" d="M33.02,27.468c0,0.122,0.025,0.244,0.055,0.365c0.031,0.122,0.068,0.243,0.094,0.365c0,0,0,0,0,0
					c0.018-2.537,0.051-5.075,0.05-7.612c-0.001-2.928-0.032-5.856-0.05-8.784c-0.052,0.243-0.149,0.487-0.149,0.73
					C33.011,17.511,33.011,22.49,33.02,27.468z"/>
				
					<line fill="none" stroke="#4E85C3" stroke-width="0" stroke-linecap="round" stroke-linejoin="round" x1="2.903" y1="5.133" x2="2.905" y2="5.132"/>
				<path fill="none" stroke="#4E85C3" stroke-width="0" stroke-linecap="round" stroke-linejoin="round" d="M2.695,5.321
					c0.069-0.063,0.139-0.125,0.208-0.188"/>
				
					<line fill="none" stroke="#4E85C3" stroke-width="0" stroke-linecap="round" stroke-linejoin="round" x1="2.695" y1="5.321" x2="2.693" y2="5.323"/>
				
					<line fill="none" stroke="#4E85C3" stroke-width="0" stroke-linecap="round" stroke-linejoin="round" x1="2.906" y1="34.864" x2="2.906" y2="34.865"/>
				<path fill="none" stroke="#4E85C3" stroke-width="0" stroke-linecap="round" stroke-linejoin="round" d="M2.906,34.864
					c-0.07-0.063-0.14-0.126-0.211-0.189"/>
				<path fill="none" stroke="#4E85C3" stroke-width="0" stroke-linecap="round" stroke-linejoin="round" d="M2.462,34.485
					c0.081,0.066,0.162,0.131,0.243,0.197"/>
				<path fill="none" stroke="#4E85C3" stroke-width="0" stroke-linecap="round" stroke-linejoin="round" d="M2.452,5.513
					c0.081-0.064,0.162-0.128,0.243-0.192"/>
				
					<line fill="none" stroke="#4E85C3" stroke-width="0" stroke-linecap="round" stroke-linejoin="round" x1="2.695" y1="5.321" x2="2.702" y2="5.316"/>
				<path fill="#4E85C3" d="M13.178,20.871c0.282,0.18,0.608,0.292,0.916,0.432c0.104-0.319,0.287-0.635,0.298-0.957
					c0.038-1.1,0.028-2.202,0.01-3.302c-0.014-0.832-0.214-1.6-0.92-2.142c0.111,0.351,0.218,0.704,0.335,1.053
					c0.07,0.207,0.223,0.407,0.226,0.612c0.02,1.422,0.011,2.845,0.011,4.346c-0.451-0.193-0.824-0.352-1.196-0.512
					C12.962,20.561,13.031,20.777,13.178,20.871z"/>
				<path fill="#4E85C3" d="M18.591,14.517c0.102-0.596-0.095-0.919-0.749-0.945c-1.253-0.051-2.509-0.03-3.763-0.001
					c-0.138,0.003-0.271,0.257-0.406,0.395c1.344-0.014,2.689-0.017,4.033-0.046C18.165,13.909,18.418,14.137,18.591,14.517z"/>
				<path fill="#4E85C3" d="M24.551,13.911c0.859,0.055,1.722,0.041,2.583,0.057c0.475,0.57-0.051,1.12-0.042,1.68
					c0.81,0.046,0.341-0.656,0.539-0.974c0.269-0.433-0.011-0.701-0.504-0.716c0.002,0.002,0.002,0.003,0.004,0.005
					c-0.255-0.14-0.503-0.372-0.768-0.395c-0.677-0.058-1.361-0.023-2.043-0.018c-0.957,0.007-1.606,0.275-1.636,1.653
					c0.077-0.1,0.187-0.189,0.225-0.302C23.179,14.103,23.75,13.86,24.551,13.911z"/>
				<path fill="#4E85C3" d="M5.693,13.995c1.037-0.024,2.075-0.08,3.111-0.051c0.32,0.009,0.634,0.252,0.95,0.388
					c0.044-0.695-0.443-0.767-0.945-0.777c-0.801-0.017-1.602-0.004-2.402-0.005c-0.33-0.001-0.65,0.011-0.716,0.433
					c-0.677,0.807-0.483,2.154,0.418,2.871C5.926,15.907,5.406,15.008,5.693,13.995z"/>
				<path fill="#4E85C3" d="M6.458,18.113c0.25,0.59,0.651,1.117,0.991,1.669c-0.397-0.843-0.793-1.686-1.19-2.529
					C5.772,17.65,6.356,17.872,6.458,18.113z"/>
				<path fill="#4E85C3" d="M18.574,19.652c0.016,0.289-0.026,0.783,0.563,0.545c-0.215-0.645-0.547-1.274-0.219-1.99
					c0.026-0.057-0.209-0.235-0.323-0.357C18.583,18.451,18.541,19.053,18.574,19.652z"/>
				<path fill="#4E85C3" d="M18.917,17.186c0.03-0.599,0.03-1.201,0-1.8c-0.005-0.096-0.209-0.182-0.322-0.273
					c0,0.782-0.001,1.563-0.001,2.345C18.707,17.368,18.912,17.282,18.917,17.186z"/>
				<path fill="#4E85C3" d="M24.756,22.168c0.393,0.399,0.786,0.798,1.179,1.197C25.882,22.515,25.63,22.259,24.756,22.168z"/>
				<path fill="#4E85C3" d="M24.791,19.401c-0.131,0.196-0.262,0.392-0.393,0.589c0.001,0,0.001,0,0.002,0
					c-0.745,0.879-0.748,0.908-0.199,1.593c0.067-0.531,0.134-1.062,0.201-1.593c0.449,0.016,0.403-0.298,0.391-0.589
					c0.703-0.198,0.961-0.702,0.95-1.391c-0.318,0.464-0.637,0.928-0.955,1.393C24.789,19.402,24.79,19.402,24.791,19.401z"/>
				<path fill="#4E85C3" d="M26.746,16.27c-0.265,0.455-0.53,0.91-0.795,1.366C26.579,17.391,26.682,16.842,26.746,16.27z"/>
				<path fill="#4E85C3" d="M10.291,15.531c0.202,0.482,0.404,0.965,0.606,1.447C10.968,16.381,10.75,15.906,10.291,15.531z"/>
				<path fill="#4E85C3" d="M9.755,14.332c0.182,0.402,0.365,0.804,0.547,1.207C10.286,15.061,10.377,14.534,9.755,14.332z"/>
				<path fill="#4E85C3" d="M12.24,19.461c0.11-0.468-0.223-0.641-0.544-0.822c0.001,0.002,0.002,0.005,0.004,0.007
					c-0.001-0.002-0.002-0.005-0.004-0.007c-0.001,0-0.001-0.001-0.002-0.001C11.876,18.912,12.058,19.186,12.24,19.461z"/>
				<path fill="#4E85C3" d="M13.094,14.614c0.132,0.097,0.263,0.194,0.395,0.291c-0.027-0.191-0.054-0.382-0.082-0.573
					C13.303,14.426,13.198,14.52,13.094,14.614z"/>
				<path fill="none" stroke="#4E85C3" stroke-width="0" stroke-linecap="round" stroke-linejoin="round" d="M8.838,22.107
					C8.694,21.853,8.55,21.6,8.405,21.346"/>
				<path fill="none" stroke="#4E85C3" stroke-width="0" stroke-linecap="round" stroke-linejoin="round" d="M12.242,19.45
					c0.149,0.247,0.298,0.493,0.447,0.74"/>
				<path fill="#4E85C3" d="M8.841,22.094c-0.001,0.005-0.002,0.008-0.003,0.013c-0.09,0.312,0.048,0.433,0.353,0.414
					c-0.001-0.001-0.002-0.003-0.003-0.004c0.001,0.001,0.002,0.003,0.003,0.004c0.002,0,0.004,0,0.007,0
					C9.079,22.378,8.96,22.236,8.841,22.094z"/>
				
					<line fill="none" stroke="#4E85C3" stroke-width="0" stroke-linecap="round" stroke-linejoin="round" x1="8.193" y1="20.975" x2="8.193" y2="20.976"/>
				<path fill="none" stroke="#4E85C3" stroke-width="0" stroke-linecap="round" stroke-linejoin="round" d="M8.193,20.975
					c-0.116-0.146-0.231-0.292-0.347-0.438"/>
				<path fill="none" stroke="#4E85C3" stroke-width="0" stroke-linecap="round" stroke-linejoin="round" d="M24.592,21.998
					c-0.132-0.139-0.263-0.279-0.395-0.418"/>
				<path fill="none" stroke="#4E85C3" stroke-width="0" stroke-linecap="round" stroke-linejoin="round" d="M27.314,25.101
					c-0.114-0.139-0.228-0.278-0.342-0.416"/>
				
					<line fill="none" stroke="#4E85C3" stroke-width="0" stroke-linecap="round" stroke-linejoin="round" x1="27.314" y1="25.101" x2="27.321" y2="25.11"/>
				<path fill="none" stroke="#4E85C3" stroke-width="0" stroke-linecap="round" stroke-linejoin="round" d="M21.868,16.858
					c0.082-0.183,0.164-0.366,0.246-0.548"/>
				<path fill="none" stroke="#4E85C3" stroke-width="0" stroke-linecap="round" stroke-linejoin="round" d="M27.534,25.49
					c-0.073-0.13-0.147-0.259-0.22-0.389"/>
				
					<line fill="none" stroke="#4E85C3" stroke-width="0" stroke-linecap="round" stroke-linejoin="round" x1="27.311" y1="25.096" x2="27.314" y2="25.101"/>
				<path fill="none" stroke="#4E85C3" stroke-width="0" stroke-linecap="round" stroke-linejoin="round" d="M9.413,22.898
					c-0.074-0.126-0.148-0.252-0.222-0.377"/>
				
					<line fill="none" stroke="#4E85C3" stroke-width="0" stroke-linecap="round" stroke-linejoin="round" x1="9.189" y1="22.516" x2="9.191" y2="22.52"/>
				<path fill="none" stroke="#4E85C3" stroke-width="0" stroke-linecap="round" stroke-linejoin="round" d="M26.552,24.117
					c-0.08-0.12-0.161-0.24-0.241-0.36"/>
				
					<line fill="none" stroke="#4E85C3" stroke-width="0" stroke-linecap="round" stroke-linejoin="round" x1="8.193" y1="20.975" x2="8.193" y2="20.975"/>
				<path fill="none" stroke="#4E85C3" stroke-width="0" stroke-linecap="round" stroke-linejoin="round" d="M8.414,21.356
					c-0.073-0.127-0.147-0.254-0.221-0.38"/>
				<path fill="none" stroke="#4E85C3" stroke-width="0" stroke-linecap="round" stroke-linejoin="round" d="M11.491,18.249
					c0.068,0.13,0.137,0.259,0.205,0.389"/>
				
					<line fill="none" stroke="#4E85C3" stroke-width="0" stroke-linecap="round" stroke-linejoin="round" x1="11.7" y1="18.646" x2="11.696" y2="18.638"/>
				<path fill="none" stroke="#4E85C3" stroke-width="0" stroke-linecap="round" stroke-linejoin="round" d="M11.293,17.861
					c0.069,0.133,0.137,0.266,0.206,0.398"/>
				<path fill="none" stroke="#4E85C3" stroke-width="0" stroke-linecap="round" stroke-linejoin="round" d="M25.735,18.019
					c0.074-0.128,0.149-0.257,0.223-0.385"/>
				<path fill="none" stroke="#4E85C3" stroke-width="0" stroke-linecap="round" stroke-linejoin="round" d="M11.095,17.47
					c0.068,0.133,0.136,0.266,0.205,0.4"/>
				<path fill="none" stroke="#4E85C3" stroke-width="0" stroke-linecap="round" stroke-linejoin="round" d="M10.899,17.06
					c0.069,0.14,0.137,0.28,0.206,0.42"/>
				
					<line fill="none" stroke="#4E85C3" stroke-width="0" stroke-linecap="round" stroke-linejoin="round" x1="26.944" y1="15.881" x2="26.944" y2="15.881"/>
				<path fill="none" stroke="#4E85C3" stroke-width="0" stroke-linecap="round" stroke-linejoin="round" d="M26.944,15.881
					c-0.068,0.132-0.136,0.265-0.204,0.397"/>
				<path fill="none" stroke="#4E85C3" stroke-width="0" stroke-linecap="round" stroke-linejoin="round" d="M22.105,16.319
					c0.07-0.131,0.14-0.263,0.209-0.394"/>
				<path fill="none" stroke="#4E85C3" stroke-width="0" stroke-linecap="round" stroke-linejoin="round" d="M22.306,15.93
					c0.068-0.132,0.137-0.263,0.205-0.395"/>
				<path fill="none" stroke="#4E85C3" stroke-width="0" stroke-linecap="round" stroke-linejoin="round" d="M22.494,15.543
					c0.055-0.078,0.111-0.157,0.166-0.235"/>
				
					<line fill="none" stroke="#4E85C3" stroke-width="0" stroke-linecap="round" stroke-linejoin="round" x1="26.944" y1="15.881" x2="26.939" y2="15.888"/>
				<path fill="none" stroke="#4E85C3" stroke-width="0" stroke-linecap="round" stroke-linejoin="round" d="M26.944,15.881
					c0.056-0.075,0.112-0.15,0.167-0.224"/>
				<path fill="none" stroke="#4E85C3" stroke-width="0" stroke-linecap="round" stroke-linejoin="round" d="M26.549,24.112
					c0.063,0.083,0.127,0.166,0.19,0.249"/>
				<path fill="none" stroke="#4E85C3" stroke-width="0" stroke-linecap="round" stroke-linejoin="round" d="M26.322,23.76
					c-0.065-0.068-0.13-0.136-0.196-0.204"/>
				<path fill="none" stroke="#4E85C3" stroke-width="0" stroke-linecap="round" stroke-linejoin="round" d="M26.136,23.562
					c-0.066-0.07-0.133-0.139-0.199-0.209"/>
				<path fill="none" stroke="#4E85C3" stroke-width="0" stroke-linecap="round" stroke-linejoin="round" d="M9.621,23.106
					c-0.075-0.071-0.149-0.142-0.224-0.214"/>
				<path fill="none" stroke="#4E85C3" stroke-width="0" stroke-linecap="round" stroke-linejoin="round" d="M7.605,19.999
					c-0.057-0.076-0.114-0.152-0.171-0.228"/>
				<path fill="#4E85C3" d="M7.824,20.386c-0.043,0.038-0.085,0.077-0.128,0.115c0.057,0.009,0.113,0.018,0.17,0.026
					C7.888,20.47,7.874,20.423,7.824,20.386z"/>
			</g>
		</g>
	</g>
</g>
</svg>
